<svg xmlns="http://www.w3.org/2000/svg" viewBox="0 0 610 610"><defs><style>.cls-1{fill:#e8ebee;}.cls-2,.cls-5{fill:none;}.cls-2,.cls-3{stroke:#674186;}.cls-2,.cls-4{stroke-miterlimit:10;}.cls-2,.cls-3,.cls-4,.cls-5{stroke-width:4px;}.cls-3{fill:#fff;}.cls-3,.cls-5{stroke-linecap:round;stroke-linejoin:round;}.cls-4,.cls-6{fill:#bd479a;}.cls-4,.cls-5{stroke:#bd479a;}.cls-7{fill:#62c0c1;}</style></defs><title>MSM-iconLG-energy-energy</title><g id="energy"><path class="cls-1" d="M515.65,183.16c72.93,119.56,35.13,275.61-84.42,348.56S155.61,566.85,82.67,447.29s28.4-191.14,84.42-348.55C209.44-20.24,442.71,63.6,515.65,183.16Z"/><path class="cls-2" d="M185.84,22.91C207.39,10.8,233.42,4.67,263.2,4.67c48.64,0,104.91,16.35,158.44,46,33.18,18.41,62.27,40.16,86.47,64.67"/><path class="cls-3" d="M305.52,109.89A124.19,124.19,0,0,0,181.33,234.07c0,37.11,11.12,70.39,36.92,93.14h0C265.44,366,259,417.76,259,417.76h92.1s-6.49-51.74,40.74-90.55h0c25.8-22.75,36.92-56,36.92-93.14A124.19,124.19,0,0,0,304.48,109.89"/><line class="cls-4" x1="330.83" y1="404.08" x2="353.22" y2="263.47"/><line class="cls-4" x1="279.52" y1="404.08" x2="256.7" y2="263.73"/><polyline class="cls-5" points="256.7 264.16 258.98 262.63 274.3 272.89 289.62 262.63 304.94 272.89 320.26 262.63 335.59 272.89 350.91 262.63 355.27 265.55"/><circle class="cls-6" cx="257.37" cy="264.31" r="8.85"/><circle class="cls-6" cx="352.97" cy="264.31" r="8.85"/><path class="cls-7" d="M376.22,413h-35V400.32a7.15,7.15,0,0,0-7.14-7.15h-6.84a7.16,7.16,0,0,0-7.15,7.15V413H289.91V400.32a7.16,7.16,0,0,0-7.15-7.15h-6.84a7.15,7.15,0,0,0-7.14,7.15V413h-35a2.65,2.65,0,0,0-2.64,2.64v7a2.65,2.65,0,0,0,2.64,2.65h20.95v61c0,16.43,11.54,30.19,27.1,34h-.46c0,7.71,10.58,14,23.63,14s23.63-6.25,23.63-14h-.47c15.57-3.85,27.11-17.61,27.11-34v-61h21a2.65,2.65,0,0,0,2.64-2.65v-7A2.65,2.65,0,0,0,376.22,413Z"/></g></svg>