<?xml version="1.0" encoding="UTF-8"?>
<svg width="498px" height="566px" viewBox="0 0 498 566" version="1.1" xmlns="http://www.w3.org/2000/svg" xmlns:xlink="http://www.w3.org/1999/xlink">
    <!-- Generator: Sketch 54.1 (76490) - https://sketchapp.com -->
    <title>Group 47</title>
    <desc>Created with Sketch.</desc>
    <defs>
        <polygon id="path-1" points="0 0.814233976 494.579577 0.814233976 494.579577 527.583312 0 527.583312"></polygon>
        <polygon id="path-3" points="0.538518637 0.92955477 156.756228 0.92955477 156.756228 157.183998 0.538518637 157.183998"></polygon>
    </defs>
    <g id="🖥📲-Screens-phase-3" stroke="none" stroke-width="1" fill="none" fill-rule="evenodd">
        <g id="Group-47" transform="translate(0.000000, -1.000000)">
            <g id="Group-3" transform="translate(0.000000, 0.184673)">
                <mask id="mask-2" fill="white">
                    <use xlink:href="#path-1"></use>
                </mask>
                <g id="Clip-2"></g>
                <path d="M457.514796,142.570463 C530.306627,261.926214 492.582379,417.701505 373.266968,490.513634 C253.945569,563.314783 98.1983146,525.589553 25.406483,406.236797 C-47.3823547,286.887035 53.7505671,215.438493 109.660299,58.3036078 C151.920439,-60.4671784 384.722964,23.2236961 457.514796,142.570463" id="Fill-1" fill="#E8EBEE" mask="url(#mask-2)"></path>
            </g>
            <path d="M454.600747,470.742927 C436.489116,490.374181 415.56114,507.543792 392.221008,521.786584 C346.760294,549.52449 294.711809,564.185542 241.701256,564.185542 C238.167352,564.185542 234.587541,564.119658 231.060623,563.98889 L231.061621,563.98889 C186.01308,562.324835 141.353757,549.998651 101.912956,528.339985 C69.8623142,510.742132 41.4433804,487.112953 18.2020497,458.935824" id="Stroke-4" stroke="#674186" stroke-width="4.00096396"></path>
            <path d="M286.97255,356.245377 L249.233331,356.245377 L237.361171,356.245377 L199.622951,356.245377 C223.261484,356.245377 211.478145,439.325333 187.838614,439.325333 L237.361171,439.325333 L249.233331,439.325333 L298.756887,439.325333 C275.117356,439.325333 263.333019,356.245377 286.97255,356.245377" id="Fill-6" fill="#FFFFFF"></path>
            <path d="M286.97255,356.245377 L249.233331,356.245377 L237.361171,356.245377 L199.622951,356.245377 C223.261484,356.245377 211.478145,439.325333 187.838614,439.325333 L237.361171,439.325333 L249.233331,439.325333 L298.756887,439.325333 C275.117356,439.325333 263.333019,356.245377 286.97255,356.245377 Z" id="Stroke-8" stroke="#674186" stroke-width="4.00096396" stroke-linecap="round" stroke-linejoin="round"></path>
            <path d="M45.7586152,377.19949 C36.8245551,377.19949 29.5571483,369.930356 29.5571483,360.994172 L29.5571483,117.735718 C29.5571483,108.799534 36.8245551,101.5304 45.7586152,101.5304 L440.836287,101.5304 C449.770347,101.5304 457.037754,108.799534 457.037754,117.735718 L457.037754,360.994172 C457.037754,369.930356 449.770347,377.19949 440.836287,377.19949 L45.7586152,377.19949 Z" id="Fill-10" fill="#FFFFFF"></path>
            <path d="M440.836386,99.5337341 L45.758715,99.5337341 C35.7248633,99.5337341 27.5612561,107.699282 27.5612561,117.735519 L27.5612561,360.993973 C27.5612561,371.031208 35.7248633,379.195757 45.758715,379.195757 L440.836386,379.195757 C450.871236,379.195757 459.033845,371.031208 459.033845,360.993973 L459.033845,117.735519 C459.033845,107.699282 450.871236,99.5337341 440.836386,99.5337341 M440.836386,103.526667 C448.649697,103.526667 455.041861,109.920351 455.041861,117.735519 L455.041861,360.993973 C455.041861,368.80914 448.649697,375.202824 440.836386,375.202824 L45.758715,375.202824 C37.9454044,375.202824 31.5532401,368.80914 31.5532401,360.993973 L31.5532401,117.735519 C31.5532401,109.920351 37.9454044,103.526667 45.758715,103.526667 L440.836386,103.526667" id="Fill-12" fill="#674186"></path>
            <path d="M31.6955543,333.075486 L454.898749,333.075486 L454.898749,365.198631 C454.898749,370.880574 450.293995,375.486422 444.613402,375.486422 L41.981899,375.486422 C36.3013058,375.486422 31.6955543,370.880574 31.6955543,365.198631 L31.6955543,333.075486 Z" id="Fill-14" fill="#E8EBEE"></path>
            <path d="M31.6955543,333.075486 L454.898749,333.075486 L454.898749,365.198631 C454.898749,370.880574 450.293995,375.486422 444.613402,375.486422 L41.981899,375.486422 C36.3013058,375.486422 31.6955543,370.880574 31.6955543,365.198631 L31.6955543,333.075486 Z" id="Stroke-16"></path>
            <path d="M31.5528409,332.861964 L455.04246,332.861964" id="Stroke-18" stroke="#BF4A8E" stroke-width="4.00096396" stroke-linecap="round"></path>
            <path d="M440.836386,99.5337341 L45.758715,99.5337341 C35.7248633,99.5337341 27.5612561,107.699282 27.5612561,117.735519 L27.5612561,360.993973 C27.5612561,371.031208 35.7248633,379.195757 45.758715,379.195757 L440.836386,379.195757 C450.871236,379.195757 459.033845,371.031208 459.033845,360.993973 L459.033845,117.735519 C459.033845,107.699282 450.871236,99.5337341 440.836386,99.5337341 M440.836386,103.526667 C448.649697,103.526667 455.041861,109.920351 455.041861,117.735519 L455.041861,360.993973 C455.041861,368.80914 448.649697,375.202824 440.836386,375.202824 L45.758715,375.202824 C37.9454044,375.202824 31.5532401,368.80914 31.5532401,360.993973 L31.5532401,117.735519 C31.5532401,109.920351 37.9454044,103.526667 45.758715,103.526667 L440.836386,103.526667" id="Fill-20" fill="#674186"></path>
            <path d="M256.287067,359.957607 L230.307236,359.957607 C228.266334,359.957607 226.596687,358.287563 226.596687,356.245178 C226.596687,354.203791 228.266334,352.533746 230.307236,352.533746 L256.287067,352.533746 C258.328967,352.533746 259.999612,354.203791 259.999612,356.245178 C259.999612,358.287563 258.328967,359.957607 256.287067,359.957607" id="Fill-22" fill="#BF4A8E"></path>
            <path d="M243.297551,149.731988 C281.496845,149.731988 313.012561,178.354329 317.57939,215.32689 C317.954637,218.365512 318.14725,221.459037 318.14725,224.599479 C318.14725,250.442739 305.057535,273.226413 285.147515,286.680601" id="Stroke-24" stroke="#E8EBEE" stroke-width="9.37725928" stroke-linecap="round" stroke-linejoin="round"></path>
            <path d="M201.448485,286.681 C201.319743,286.593155 201.190004,286.505311 201.061263,286.417466" id="Stroke-26" stroke="#C6CACC" stroke-width="4.68912976" stroke-linecap="round" stroke-linejoin="round"></path>
            <path d="M200.293604,285.88461 C181.033279,272.338585 168.447552,249.93923 168.447552,224.59908 C168.447552,183.563708 201.454273,150.239689 242.361131,149.737578" id="Stroke-28" stroke="#C6CACC" stroke-width="4.68912976" stroke-linecap="round" stroke-linejoin="round" stroke-dasharray="0.9372257304376053,0.9372257304376053"></path>
            <path d="M242.82969,149.733984 C242.985378,149.732986 243.141065,149.731988 243.29775,149.731988" id="Stroke-30" stroke="#C6CACC" stroke-width="4.68912976" stroke-linecap="round" stroke-linejoin="round"></path>
            <path d="M217.838374,229.020354 C217.838374,226.116494 215.574919,223.922377 212.627836,223.922377 C209.679756,223.922377 207.417299,226.116494 207.417299,228.995398 C207.417299,231.900257 209.70271,234.140292 212.604883,234.140292 C215.530009,234.140292 217.838374,231.900257 217.838374,229.020354 M201.751676,235.281273 C199.535127,232.35645 198.369468,228.242731 198.369468,223.420266 C198.369468,212.56448 203.967227,205.98213 212.719652,205.98213 C219.368301,205.98213 224.599796,209.867254 225.469051,215.398464 L217.311432,215.398464 C216.762534,213.59266 214.913247,212.403764 212.696698,212.403764 C208.560005,212.403764 205.954237,216.540443 206.298546,223.283508 L206.459223,223.283508 C207.691748,220.082174 210.7536,217.911017 215.027019,217.911017 C221.242538,217.911017 225.881223,222.505884 225.881223,228.767801 C225.881223,235.716503 220.397235,240.605849 212.696698,240.605849 C208.080967,240.605849 204.172814,238.755125 201.751676,235.281273" id="Fill-32" fill="#62C0C1"></path>
            <path d="M236.38074,228.196612 L245.795834,228.196612 L245.795834,212.472443 L245.636155,212.472443 C241.591277,218.505764 239.078323,222.481727 236.38074,227.968017 L236.38074,228.196612 Z M245.567293,234.436568 L229.275008,234.436568 L229.275008,227.418989 C232.178179,221.796939 235.605297,216.128971 241.84377,206.803476 L253.495373,206.803476 L253.495373,227.89814 L257.608115,227.89814 L257.608115,234.436568 L253.495373,234.436568 L253.495373,239.784103 L245.567293,239.784103 L245.567293,234.436568 Z" id="Fill-34" fill="#62C0C1"></path>
            <path d="M273.571659,205.98203 C281.066609,205.98203 285.932838,210.00491 285.932838,215.786677 C285.932838,220.105034 282.642445,223.373249 279.993764,225.910758 L272.109595,233.177896 L272.109595,233.338611 L286.34501,233.338611 L286.34501,239.784203 L261.208485,239.784203 L261.208485,234.184115 L274.074649,222.346067 C276.816144,219.716721 277.821126,218.116553 277.821126,216.060193 C277.821126,213.957913 276.038705,212.288867 273.29721,212.288867 C270.464898,212.288867 268.40703,214.231429 268.40703,216.952613 L268.40703,217.11233 L260.730445,217.11233 L260.730445,216.952613 C260.730445,210.438143 265.871122,205.98203 273.571659,205.98203" id="Fill-36" fill="#62C0C1"></path>
            <path d="M201.448485,286.681 C181.538465,273.225814 168.447752,250.44214 168.447752,224.599878 C168.447752,183.25206 201.959459,149.732387 243.297451,149.732387 C267.172509,149.732387 288.43681,160.912599 302.141291,178.324781 C308.925667,186.943527 313.856766,197.088571 316.337784,208.160973 C316.863727,210.509816 317.278894,212.900585 317.579291,215.32729" id="Stroke-38" stroke="#3EA3A5" stroke-width="9.37725928" stroke-linecap="round"></path>
            <path d="M201.448485,286.681 C181.538465,273.225814 168.447752,250.44214 168.447752,224.599878 C168.447752,183.25206 201.959459,149.732387 243.297451,149.732387 C267.172509,149.732387 288.43681,160.912599 302.141291,178.324781" id="Stroke-40" stroke="#62C0C1" stroke-width="9.37725928" stroke-linecap="round"></path>
            <g id="Group-44" transform="translate(340.316633, 27.136970)">
                <mask id="mask-4" fill="white">
                    <use xlink:href="#path-3"></use>
                </mask>
                <g id="Clip-43"></g>
                <path d="M78.6476729,0.92955477 C121.78605,0.92955477 156.756827,35.9086449 156.756827,79.0572756 C156.756827,122.204908 121.78605,157.183998 78.6476729,157.183998 C35.5092962,157.183998 0.538518637,122.204908 0.538518637,79.0572756 C0.538518637,35.9086449 35.5092962,0.92955477 78.6476729,0.92955477" id="Fill-42" fill="#66C0C0" mask="url(#mask-4)"></path>
            </g>
            <path d="M410.269865,78.5532677 C415.127111,78.6241422 419.764799,80.5856705 423.199901,84.0215892 C430.505232,91.3266599 430.505232,103.126775 423.199901,110.432844 C415.896566,117.737914 404.096262,117.737914 396.792927,110.432844 C389.487596,103.126775 389.487596,91.3266599 396.792927,84.0215892 C400.361761,80.450909 405.222001,78.4793984 410.269865,78.5532677 M409.57526,68.2644779 C402.041388,68.3752818 394.843841,71.4168984 389.51554,76.7454673 C378.217228,88.0454673 378.217228,106.409964 389.51554,117.709964 L389.517536,117.709964 L389.517536,117.71196 C399.399693,127.568515 414.841685,128.84825 426.266743,121.038073 L447.798506,142.572958 C449.86835,144.643294 453.26453,144.643294 455.334374,142.572958 C457.404218,140.502623 457.404218,137.104637 455.334374,135.034301 L433.810594,113.507402 C441.620911,102.077632 440.337488,86.6309708 430.477288,76.7474638 L430.475292,76.7454673 C424.941404,71.2102641 417.401544,68.1506793 409.57526,68.2644779" id="Fill-45" fill="#FFFFFF"></path>
        </g>
    </g>
</svg>