<svg xmlns="http://www.w3.org/2000/svg" viewBox="0 0 610 610"><defs><style>.cls-1{fill:#e8ebee;}.cls-2,.cls-9{fill:none;}.cls-2,.cls-8{stroke:#674186;}.cls-2{stroke-miterlimit:10;}.cls-2,.cls-3,.cls-4,.cls-5,.cls-8,.cls-9{stroke-width:4px;}.cls-3,.cls-4,.cls-5,.cls-7,.cls-8{fill:#fff;}.cls-3,.cls-7{stroke:#562873;}.cls-3,.cls-4,.cls-5,.cls-7,.cls-8,.cls-9{stroke-linecap:round;stroke-linejoin:round;}.cls-4,.cls-9{stroke:#bf4a8e;}.cls-5{stroke:#562872;}.cls-6{fill:#62c0c1;}.cls-7{stroke-width:4.01px;}</style></defs><title>MSM-iconLG-home-insurance</title><g id="home_insurance" data-name="home insurance"><path class="cls-1" d="M516.65,183.16c72.93,119.56,35.13,275.61-84.42,348.56S156.61,566.85,83.67,447.29s28.4-191.14,84.42-348.55C210.44-20.24,443.71,63.6,516.65,183.16Z"/><path class="cls-2" d="M513.73,511.72A291.42,291.42,0,0,1,300.4,605.33c-3.54,0-7.13-.06-10.66-.19h0a292.68,292.68,0,0,1-129.41-35.72A289.65,289.65,0,0,1,76.45,499.9"/><rect class="cls-3" x="95.87" y="289.57" width="421.11" height="186.91"/><path class="cls-4" d="M278.91,346h55a6,6,0,0,1,6,6V476.48a0,0,0,0,1,0,0H272.88a0,0,0,0,1,0,0V352A6,6,0,0,1,278.91,346Z"/><path class="cls-5" d="M422.59,133.52h25.67A5.78,5.78,0,0,1,454,139.3v31.45a0,0,0,0,1,0,0H416.81a0,0,0,0,1,0,0V139.3A5.78,5.78,0,0,1,422.59,133.52Z"/><path class="cls-6" d="M82.51,294l37.06-125.31a3,3,0,0,1,2.87-2.19h368a3,3,0,0,1,2.86,2.19L530.34,294a3.08,3.08,0,0,1-2.87,4H85.38A3.08,3.08,0,0,1,82.51,294Z"/><path class="cls-3" d="M163.56,349h37.2a6,6,0,0,1,6,6v59.42a0,0,0,0,1,0,0H157.53a0,0,0,0,1,0,0V355.06A6,6,0,0,1,163.56,349Z"/><line class="cls-3" x1="152.51" y1="414.47" x2="211.81" y2="414.47"/><path class="cls-3" d="M412.08,349h37.2a6,6,0,0,1,6,6v59.42a0,0,0,0,1,0,0H406.06a0,0,0,0,1,0,0V355.06A6,6,0,0,1,412.08,349Z"/><line class="cls-3" x1="401.03" y1="414.47" x2="460.34" y2="414.47"/><line class="cls-7" x1="269.19" y1="476.48" x2="349.75" y2="476.48"/><polyline class="cls-6" points="191.97 122.56 147.29 123.8 148.42 79.02"/><path class="cls-8" d="M143.75,79H86.84a4.46,4.46,0,0,0-4.46,4.46V220.83a4.47,4.47,0,0,0,4.47,4.46h100.8a4.47,4.47,0,0,0,4.47-4.46V127.34a4.47,4.47,0,0,0-4.47-4.47h-35a4.46,4.46,0,0,1-4.46-4.46v-35A4.47,4.47,0,0,0,143.75,79Z"/><line class="cls-9" x1="113.97" y1="167.29" x2="161.01" y2="167.29"/><line class="cls-9" x1="113.97" y1="181.36" x2="161.01" y2="181.36"/></g></svg>