<svg xmlns="http://www.w3.org/2000/svg" viewBox="0 0 610 610"><defs><style>.cls-1{fill:#e8ebee;}.cls-2,.cls-6{fill:none;stroke-width:4px;}.cls-2{stroke:#674186;stroke-miterlimit:10;}.cls-3{fill:#fff;}.cls-4{fill:#674186;}.cls-5{fill:#62c0c1;}.cls-6{stroke:#bf4a8e;stroke-linecap:round;stroke-linejoin:round;}</style></defs><title>MSM-iconLG-money-credit-cards</title><g id="credit_cards" data-name="credit cards"><path class="cls-1" d="M515.65,183.16c72.93,119.56,35.13,275.61-84.42,348.56S155.61,566.85,82.67,447.29s28.4-191.14,84.42-348.55C209.44-20.24,442.71,63.6,515.65,183.16Z"/><path class="cls-2" d="M565,431.53A290.38,290.38,0,0,1,299.4,605.33c-3.54,0-7.13-.06-10.66-.19"/><rect class="cls-3" x="281.49" y="148.05" width="234.21" height="144.11" rx="8.86"/><path class="cls-4" d="M506.84,150.05a6.86,6.86,0,0,1,6.86,6.86V283.3a6.86,6.86,0,0,1-6.86,6.86H290.35a6.86,6.86,0,0,1-6.86-6.86V156.91a6.86,6.86,0,0,1,6.86-6.86H506.84m0-4H290.35a10.87,10.87,0,0,0-10.86,10.86V283.3a10.87,10.87,0,0,0,10.86,10.86H506.84A10.87,10.87,0,0,0,517.7,283.3V156.91a10.87,10.87,0,0,0-10.86-10.86Z"/><rect class="cls-5" x="283.49" y="178.78" width="230.21" height="30.65"/><rect class="cls-3" x="81.46" y="244.86" width="376.51" height="230.71" rx="13.1"/><path class="cls-4" d="M444.87,246.86A11.09,11.09,0,0,1,456,258V462.47a11.09,11.09,0,0,1-11.09,11.1H94.55a11.1,11.1,0,0,1-11.09-11.1V258a11.1,11.1,0,0,1,11.09-11.1H444.87m0-4H94.55A15.12,15.12,0,0,0,79.46,258V462.47a15.11,15.11,0,0,0,15.09,15.1H444.87A15.11,15.11,0,0,0,460,462.47V258a15.12,15.12,0,0,0-15.09-15.1Z"/><rect class="cls-5" x="124.37" y="300.84" width="59.38" height="59.38" rx="5.55"/><line class="cls-6" x1="278.73" y1="436.88" x2="338.11" y2="436.88"/><line class="cls-6" x1="201.55" y1="436.88" x2="260.93" y2="436.88"/><line class="cls-6" x1="124.37" y1="436.88" x2="183.74" y2="436.88"/><line class="cls-6" x1="355.92" y1="436.88" x2="415.29" y2="436.88"/></g></svg>